<svg width="390" height="71" viewBox="0 0 390 71" fill="none" xmlns="http://www.w3.org/2000/svg">
<g clip-path="url(#clip0)">
<rect y="-773" width="390" height="844" rx="20" fill="white"/>
<path d="M-5.48959 352.893C26.5671 365.122 102.637 405.417 150.461 468.76L452.841 606.883L758.183 156.974C715.245 119.155 618.226 38.789 573.652 19.8725C517.934 -3.77319 495.273 95.514 426.307 44.2739C357.341 -6.96616 369.34 83.3093 261.76 68.4678C154.179 53.6263 76.3811 29.8478 46.1377 93.9154C-27.7653 64.8947 -15.078 138.67 -44.5063 215.917C-68.049 277.715 -28.3046 332.983 -5.48959 352.893Z" fill="#2FA6A7"/>
<path d="M-28.7494 -3.98931C-63.1185 -51.4692 -114.717 -43.0093 -136.22 -32.8444L-143.871 -26.2481C-205.786 18.7589 -331.559 110.447 -339.328 117.145C-347.097 123.843 -175.333 300.813 -88.4801 388.461L253.161 93.9103C237.927 55.773 153.845 52.0643 111.698 63.0178C79.3371 71.4279 5.61969 43.4906 -28.7494 -3.98931Z" fill="#F8D966"/>
</g>
<defs>
<clipPath id="clip0">
<rect y="-773" width="390" height="844" rx="20" fill="white"/>
</clipPath>
</defs>
</svg>
