<svg width="343" height="184" viewBox="0 0 343 184" fill="none" xmlns="http://www.w3.org/2000/svg">
<path d="M35.852 183.077L32.7448 175.385H12.9297L9.82258 183.077H0.735748L18.968 140H26.7065L44.9974 183.077H35.852V183.077ZM15.9196 168.062H29.755L22.8373 151.015L15.9196 168.062ZM72.3165 159.2C76.6548 160.431 80.7585 164.492 80.7585 170.462C80.7585 178.277 76.0685 183.077 65.8678 183.077H49.6874V140H64.9884C73.489 140 77.7686 145.046 77.7686 150.831C77.7686 155.385 74.9546 157.969 72.3165 159.2V159.2ZM64.1677 147.877H58.2466V156.554H64.1677C67.8024 156.554 69.268 154.769 69.268 152.185C69.268 149.415 67.5679 147.877 64.1677 147.877ZM65.3988 175.2C70.0888 175.2 72.1993 173.169 72.1993 169.354C72.1993 166.092 70.0888 163.815 65.0471 163.815H58.2466V175.2H65.3988ZM109.485 140H118.044V167.446C118.044 177.908 110.833 184 102.215 184C93.5973 184 86.3278 177.908 86.3278 167.446V140H94.887V167.508C94.887 173.785 98.8149 175.569 102.215 175.569C105.557 175.569 109.485 173.785 109.485 167.508V140V140ZM133.638 174.831H150.991V183.077H132.465H125.079V140H133.638H150.463V148.246H133.638V157.354H146.36V165.477H133.638V174.831Z" fill="#2FA6A7"/>
<path d="M194.659 183.389L189.477 171.228H166.074L160.892 183.389H159.088L177.31 140.611H178.183L196.463 183.389H194.659V183.389ZM166.772 169.517H188.779L177.776 143.667L166.772 169.517ZM242.514 140.611V183.389H240.825V144.583L222.37 183.389H221.264L202.809 144.522V183.389H201.121V140.611H202.809L221.846 180.639L240.825 140.611H242.514V140.611ZM251.188 140.611V183.389H249.5V140.611H251.188ZM296.947 162.917C297.063 175.994 288.156 184 277.852 184C267.547 184 257.301 174.894 257.301 162C257.301 149.106 267.838 140 277.852 140C282.742 140 287.341 141.833 291.125 145.072L289.961 146.478C286.526 143.422 282.276 141.833 278.026 141.833C268.886 141.833 258.989 150.022 258.989 162C258.989 173.978 268.537 182.167 277.852 182.167C286.584 182.167 294.56 175.994 295.317 164.628H281.461V162.917H296.947ZM322.155 140C332.169 140 342.764 149.106 342.764 162C342.764 174.894 332.169 184 322.155 184C312.142 184 301.604 174.894 301.604 162C301.604 149.106 312.142 140 322.155 140V140ZM322.155 182.167C331.179 182.167 341.076 173.978 341.076 162C341.076 150.022 331.179 141.833 322.155 141.833C313.19 141.833 303.293 150.022 303.293 162C303.293 173.978 313.19 182.167 322.155 182.167Z" fill="#171815"/>
<rect x="115" width="114" height="114" rx="20" fill="url(#paint0_linear)"/>
<path d="M157.703 25C152.527 25 148.268 29.2588 148.268 34.4351C148.268 39.6114 152.527 43.8498 157.703 43.8498C162.88 43.8498 167.118 39.6114 167.118 34.4351C167.118 29.2588 162.88 25 157.703 25ZM187.132 25C181.956 25 177.717 29.2588 177.717 34.4351C177.717 39.6114 181.956 43.8498 187.132 43.8498C192.308 43.8498 196.567 39.6114 196.567 34.4351C196.567 29.2588 192.308 25 187.132 25ZM157.703 29.5746C160.407 29.5746 162.543 31.7311 162.543 34.4351C162.543 37.1391 160.407 39.2751 157.703 39.2751C154.999 39.2751 152.843 37.1391 152.843 34.4351C152.843 31.7311 154.999 29.5746 157.703 29.5746ZM187.132 29.5746C189.836 29.5746 191.992 31.7311 191.992 34.4351C191.992 37.1391 189.836 39.2751 187.132 39.2751C184.428 39.2751 182.292 37.1391 182.292 34.4351C182.292 31.7311 184.428 29.5746 187.132 29.5746ZM172.428 40.6843C167.252 40.6843 162.993 44.9432 162.993 50.1195C162.993 55.2957 167.252 59.534 172.428 59.534C177.604 59.534 181.843 55.2957 181.843 50.1195C181.843 44.9432 177.604 40.6843 172.428 40.6843ZM172.428 45.259C175.132 45.259 177.268 47.4155 177.268 50.1195C177.268 52.8234 175.132 54.9595 172.428 54.9595C169.724 54.9595 167.567 52.8234 167.567 50.1195C167.567 47.4155 169.724 45.259 172.428 45.259ZM158.071 45.8716C150.316 45.8716 144 52.1875 144 59.9425V83.8775C144 87.117 146.683 89.7999 149.922 89.7999H155.314C155.617 89.8042 155.918 89.7482 156.199 89.6351C156.48 89.5221 156.736 89.3543 156.952 89.1414C157.168 88.9286 157.339 88.675 157.456 88.3954C157.573 88.1158 157.634 87.8157 157.634 87.5126C157.634 87.2095 157.573 86.9094 157.456 86.6298C157.339 86.3502 157.168 86.0966 156.952 85.8838C156.736 85.6709 156.48 85.5031 156.199 85.3901C155.918 85.277 155.617 85.221 155.314 85.2253H149.922C149.124 85.2253 148.575 84.6763 148.575 83.8775V59.9425C148.575 54.6439 152.772 50.4462 158.071 50.4462C158.374 50.4505 158.675 50.3945 158.956 50.2814C159.237 50.1684 159.493 50.0005 159.709 49.7877C159.925 49.5749 160.096 49.3213 160.213 49.0417C160.33 48.7621 160.391 48.462 160.391 48.1589C160.391 47.8558 160.33 47.5557 160.213 47.2761C160.096 46.9965 159.925 46.7429 159.709 46.5301C159.493 46.3173 159.237 46.1495 158.956 46.0364C158.675 45.9234 158.374 45.8674 158.071 45.8716ZM186.54 45.8716C186.239 45.8863 185.945 45.9601 185.673 46.0886C185.401 46.2172 185.157 46.398 184.955 46.6208C184.753 46.8437 184.597 47.1041 184.495 47.3873C184.394 47.6705 184.35 47.9709 184.364 48.2713C184.379 48.5717 184.453 48.8662 184.581 49.1381C184.71 49.41 184.891 49.6539 185.114 49.8558C185.337 50.0578 185.597 50.2139 185.88 50.3152C186.164 50.4165 186.464 50.461 186.764 50.4462C192.063 50.4462 196.261 54.6439 196.261 59.9425V83.8775C196.261 84.6763 195.712 85.2253 194.913 85.2253H189.521C189.218 85.221 188.917 85.277 188.636 85.3901C188.355 85.5031 188.099 85.6709 187.883 85.8838C187.667 86.0966 187.496 86.3502 187.379 86.6298C187.262 86.9094 187.202 87.2095 187.202 87.5126C187.202 87.8157 187.262 88.1158 187.379 88.3954C187.496 88.675 187.667 88.9286 187.883 89.1414C188.099 89.3543 188.355 89.5221 188.636 89.6351C188.917 89.7482 189.218 89.8042 189.521 89.7999H194.913C198.152 89.7999 200.835 87.117 200.835 83.8775V59.9425C200.835 52.1875 194.519 45.8716 186.764 45.8716C186.689 45.8679 186.614 45.8679 186.54 45.8716ZM172.795 61.5559C165.04 61.5559 158.724 67.8718 158.724 75.6269V79.3233V79.7726V83.8775C158.724 87.117 161.407 89.7999 164.647 89.7999C164.95 89.8042 165.251 89.7482 165.532 89.6351C165.813 89.5221 166.069 89.3543 166.285 89.1414C166.501 88.9286 166.672 88.675 166.789 88.3954C166.906 88.1158 166.967 87.8157 166.967 87.5126C166.967 87.2095 166.906 86.9094 166.789 86.6298C166.672 86.3502 166.501 86.0966 166.285 85.8838C166.069 85.6709 165.813 85.5031 165.532 85.3901C165.251 85.277 164.95 85.221 164.647 85.2253C163.848 85.2253 163.299 84.6763 163.299 83.8775V79.7726V79.3233V75.6269C163.299 70.3282 167.497 66.1305 172.795 66.1305C178.094 66.1305 182.292 70.3282 182.292 75.6269V79.3233V79.7726V83.8775C182.292 84.6609 181.722 85.2253 180.924 85.2253C180.62 85.221 180.32 85.277 180.038 85.3901C179.757 85.5031 179.501 85.6709 179.285 85.8838C179.07 86.0966 178.898 86.3502 178.781 86.6298C178.664 86.9094 178.604 87.2095 178.604 87.5126C178.604 87.8157 178.664 88.1158 178.781 88.3954C178.898 88.675 179.07 88.9286 179.285 89.1414C179.501 89.3543 179.757 89.5221 180.038 89.6351C180.32 89.7482 180.62 89.8042 180.924 89.7999C184.163 89.7999 186.866 87.1325 186.866 83.8775V79.7726V79.3233V75.6269C186.866 67.8718 180.55 61.5559 172.795 61.5559Z" fill="white"/>
<defs>
<linearGradient id="paint0_linear" x1="239" y1="-3.35721e-06" x2="71.5" y2="114" gradientUnits="userSpaceOnUse">
<stop stop-color="#F8D966"/>
<stop offset="0.0001" stop-color="#2F7A7A"/>
<stop offset="0.95939" stop-color="#3BB8B9"/>
</linearGradient>
</defs>
</svg>
