<svg width="114" height="114" viewBox="0 0 114 114" fill="none" xmlns="http://www.w3.org/2000/svg">
<rect width="114" height="114" rx="20" fill="url(#paint0_linear)"/>
<path d="M42.7034 25C37.5271 25 33.2683 29.2588 33.2683 34.4351C33.2683 39.6114 37.5271 43.8498 42.7034 43.8498C47.8796 43.8498 52.118 39.6114 52.118 34.4351C52.118 29.2588 47.8796 25 42.7034 25ZM72.1319 25C66.9556 25 62.7172 29.2588 62.7172 34.4351C62.7172 39.6114 66.9556 43.8498 72.1319 43.8498C77.3082 43.8498 81.567 39.6114 81.567 34.4351C81.567 29.2588 77.3082 25 72.1319 25ZM42.7034 29.5746C45.4073 29.5746 47.5434 31.7311 47.5434 34.4351C47.5434 37.1391 45.4073 39.2751 42.7034 39.2751C39.9994 39.2751 37.8429 37.1391 37.8429 34.4351C37.8429 31.7311 39.9994 29.5746 42.7034 29.5746ZM72.1319 29.5746C74.8359 29.5746 76.9924 31.7311 76.9924 34.4351C76.9924 37.1391 74.8359 39.2751 72.1319 39.2751C69.4279 39.2751 67.2918 37.1391 67.2918 34.4351C67.2918 31.7311 69.4279 29.5746 72.1319 29.5746ZM57.4278 40.6843C52.2516 40.6843 47.9927 44.9432 47.9927 50.1195C47.9927 55.2957 52.2516 59.534 57.4278 59.534C62.6041 59.534 66.8425 55.2957 66.8425 50.1195C66.8425 44.9432 62.6041 40.6843 57.4278 40.6843ZM57.4278 45.259C60.1318 45.259 62.2679 47.4155 62.2679 50.1195C62.2679 52.8234 60.1318 54.9595 57.4278 54.9595C54.7239 54.9595 52.5673 52.8234 52.5673 50.1195C52.5673 47.4155 54.7239 45.259 57.4278 45.259ZM43.071 45.8716C35.316 45.8716 29 52.1875 29 59.9425V83.8775C29 87.117 31.6829 89.7999 34.9225 89.7999H40.314C40.617 89.8042 40.9179 89.7482 41.1991 89.6351C41.4804 89.5221 41.7363 89.3543 41.9522 89.1414C42.168 88.9286 42.3393 88.675 42.4563 88.3954C42.5733 88.1158 42.6335 87.8157 42.6335 87.5126C42.6335 87.2095 42.5733 86.9094 42.4563 86.6298C42.3393 86.3502 42.168 86.0966 41.9522 85.8838C41.7363 85.6709 41.4804 85.5031 41.1991 85.3901C40.9179 85.277 40.617 85.221 40.314 85.2253H34.9225C34.1236 85.2253 33.5746 84.6763 33.5746 83.8775V59.9425C33.5746 54.6439 37.7723 50.4462 43.071 50.4462C43.374 50.4505 43.6749 50.3945 43.9562 50.2814C44.2374 50.1684 44.4934 50.0005 44.7092 49.7877C44.925 49.5749 45.0964 49.3213 45.2133 49.0417C45.3303 48.7621 45.3905 48.462 45.3905 48.1589C45.3905 47.8558 45.3303 47.5557 45.2133 47.2761C45.0964 46.9965 44.925 46.7429 44.7092 46.5301C44.4934 46.3173 44.2374 46.1495 43.9562 46.0364C43.6749 45.9234 43.374 45.8674 43.071 45.8716ZM71.5397 45.8716C71.2393 45.8863 70.9447 45.9601 70.6728 46.0886C70.4009 46.2172 70.157 46.398 69.955 46.6208C69.753 46.8437 69.5968 47.1041 69.4955 47.3873C69.3941 47.6705 69.3496 47.9709 69.3643 48.2713C69.3791 48.5717 69.4529 48.8662 69.5815 49.1381C69.7101 49.41 69.891 49.6539 70.1138 49.8558C70.3367 50.0578 70.5971 50.2139 70.8803 50.3152C71.1635 50.4165 71.4639 50.461 71.7643 50.4462C77.0629 50.4462 81.2607 54.6439 81.2607 59.9425V83.8775C81.2607 84.6763 80.7117 85.2253 79.9128 85.2253H74.5213C74.2182 85.221 73.9173 85.277 73.6361 85.3901C73.3549 85.5031 73.0989 85.6709 72.8831 85.8838C72.6673 86.0966 72.4959 86.3502 72.3789 86.6298C72.262 86.9094 72.2017 87.2095 72.2017 87.5126C72.2017 87.8157 72.262 88.1158 72.3789 88.3954C72.4959 88.675 72.6673 88.9286 72.8831 89.1414C73.0989 89.3543 73.3549 89.5221 73.6361 89.6351C73.9173 89.7482 74.2182 89.8042 74.5213 89.7999H79.9128C83.1523 89.7999 85.8353 87.117 85.8353 83.8775V59.9425C85.8353 52.1875 79.5193 45.8716 71.7643 45.8716C71.6895 45.8679 71.6145 45.8679 71.5397 45.8716ZM57.7955 61.5559C50.0405 61.5559 43.7245 67.8718 43.7245 75.6269V79.3233V79.7726V83.8775C43.7245 87.117 46.4074 89.7999 49.6469 89.7999C49.95 89.8042 50.2509 89.7482 50.5321 89.6351C50.8134 89.5221 51.0693 89.3543 51.2851 89.1414C51.501 88.9286 51.6723 88.675 51.7893 88.3954C51.9063 88.1158 51.9665 87.8157 51.9665 87.5126C51.9665 87.2095 51.9063 86.9094 51.7893 86.6298C51.6723 86.3502 51.501 86.0966 51.2851 85.8838C51.0693 85.6709 50.8134 85.5031 50.5321 85.3901C50.2509 85.277 49.95 85.221 49.6469 85.2253C48.8481 85.2253 48.2991 84.6763 48.2991 83.8775V79.7726V79.3233V75.6269C48.2991 70.3282 52.4968 66.1305 57.7955 66.1305C63.0941 66.1305 67.2918 70.3282 67.2918 75.6269V79.3233V79.7726V83.8775C67.2918 84.6609 66.7224 85.2253 65.9235 85.2253C65.6205 85.221 65.3196 85.277 65.0383 85.3901C64.7571 85.5031 64.5011 85.6709 64.2853 85.8838C64.0695 86.0966 63.8981 86.3502 63.7812 86.6298C63.6642 86.9094 63.604 87.2095 63.604 87.5126C63.604 87.8157 63.6642 88.1158 63.7812 88.3954C63.8981 88.675 64.0695 88.9286 64.2853 89.1414C64.5011 89.3543 64.7571 89.5221 65.0383 89.6351C65.3196 89.7482 65.6205 89.8042 65.9235 89.7999C69.1631 89.7999 71.8664 87.1325 71.8664 83.8775V79.7726V79.3233V75.6269C71.8664 67.8718 65.5504 61.5559 57.7955 61.5559Z" fill="white"/>
<defs>
<linearGradient id="paint0_linear" x1="124" y1="-3.35721e-06" x2="-43.5" y2="114" gradientUnits="userSpaceOnUse">
<stop stop-color="#F8D966"/>
<stop offset="0.0001" stop-color="#2F7A7A"/>
<stop offset="0.95939" stop-color="#3BB8B9"/>
</linearGradient>
</defs>
</svg>
