<svg width="375" height="213" viewBox="0 0 375 213" fill="none" xmlns="http://www.w3.org/2000/svg">
<path d="M410.664 54.5002C294.164 54.5002 215.878 85.2085 186.664 127C150.664 178.5 -3.10865 246.725 -44.9981 193.501C-97.336 127 -106.855 86.6159 -35.0687 16.3454C23.4844 -40.9712 -7.88511 -27.0885 -49.4725 -45.6384C-98.1784 -23.1721 -119.61 -102.117 -78.3148 -64.3814C-68.7921 -55.6796 -58.8714 -49.8307 -49.4725 -45.6384C-37.2504 -51.276 -23.311 -63.2993 -8.21424 -85.1544C67.0443 -194.104 -28.837 -38.9465 63.9312 -98.6544C156.699 -158.362 104.425 -46.1042 160.432 -98.6544C205.237 -140.695 267.361 -62.918 331.432 -98.6543L468.867 -66.589L410.664 54.5002Z" fill="#171815"/>
</svg>
