<svg width="375" height="299" viewBox="0 0 375 299" fill="none" xmlns="http://www.w3.org/2000/svg">
<path d="M-23 231C1.22104 200.624 78.164 140.295 192.168 141.991C306.171 143.686 362.891 48.0367 377 0V231H-23Z" fill="#F8D966"/>
<rect y="231" width="375" height="122" fill="#F8D966"/>
<path d="M-283 152.623C-273.699 185.649 -260.677 270.741 -283 346.906L-213.536 672L329.706 648.779C334.456 591.758 341.105 465.952 329.706 418.891C315.457 360.064 222.245 401.088 222.245 315.17C222.245 229.253 156.937 292.723 104.691 197.517C52.4446 102.311 25.1341 25.6816 -44.3297 39.6142C-65.1094 -37.0151 -116.762 17.1672 -196.319 39.6142C-259.964 57.5718 -280.625 122.436 -283 152.623Z" fill="#2FA6A7"/>
</svg>
